<svg xmlns="http://www.w3.org/2000/svg" xmlns:xlink="http://www.w3.org/1999/xlink" width="1217" height="491" viewBox="151 507 1217 491" preserveAspectRatio="xMidYMid meet" version="1.0"><defs><g/><clipPath id="c17579be25"><path d="M 172.933594 529.941406 L 706.183594 529.941406 L 706.183594 1063.191406 L 172.933594 1063.191406 Z M 172.933594 529.941406 " clip-rule="nonzero"/></clipPath><clipPath id="7a8c47d3c4"><path d="M 284 570 L 706.183594 570 L 706.183594 1063.191406 L 284 1063.191406 Z M 284 570 " clip-rule="nonzero"/></clipPath><clipPath id="ede3956413"><rect x="0" width="328" y="0" height="702"/></clipPath><clipPath id="79ba8ed525"><rect x="0" width="359" y="0" height="389"/></clipPath></defs><g clip-path="url(#c17579be25)"><path stroke-linecap="butt" transform="matrix(4.44375, 0, 0, 4.44375, 172.935472, 529.940382)" fill="none" stroke-linejoin="miter" d="M 75.999935 43.999883 C 75.999935 44.523793 75.98675 45.046824 75.961258 45.569855 C 75.935765 46.092886 75.897087 46.615038 75.846103 47.13631 C 75.794239 47.657583 75.730069 48.177098 75.653592 48.695734 C 75.577115 49.213491 75.487453 49.729489 75.385484 50.242851 C 75.282636 50.756212 75.16836 51.266937 75.040899 51.775024 C 74.913437 52.283111 74.77367 52.787682 74.622474 53.288737 C 74.470399 53.790671 74.306018 54.287331 74.129331 54.780474 C 73.952643 55.273618 73.764527 55.762366 73.564105 56.24584 C 73.363683 56.729314 73.151834 57.208393 72.927678 57.681318 C 72.703522 58.155123 72.467938 58.622774 72.221806 59.084272 C 71.974794 59.546649 71.716356 60.001994 71.447368 60.451185 C 71.178381 60.900376 70.897966 61.342535 70.607003 61.778541 C 70.316039 62.213668 70.014527 62.641762 69.702467 63.061945 C 69.390406 63.483007 69.068676 63.896157 68.736398 64.300517 C 68.404119 64.705756 68.062171 65.102205 67.710554 65.489863 C 67.358936 65.877522 66.997649 66.257268 66.627572 66.627346 C 66.257494 66.997423 65.877748 67.35871 65.490089 67.710328 C 65.101552 68.061945 64.705103 68.403893 64.300743 68.736172 C 63.895504 69.06845 63.483233 69.391059 63.062171 69.702241 C 62.641988 70.014301 62.213894 70.315813 61.777888 70.606777 C 61.342761 70.89774 60.900602 71.178155 60.451411 71.447142 C 60.00222 71.71613 59.546875 71.974569 59.084498 72.22158 C 58.623 72.468591 58.155349 72.703296 57.681544 72.927452 C 57.208619 73.151608 56.72954 73.363458 56.246066 73.56388 C 55.761713 73.764301 55.273844 73.953296 54.7807 74.129105 C 54.287557 74.305792 53.790018 74.470174 53.288963 74.622248 C 52.787908 74.774323 52.283337 74.914091 51.77525 75.040673 C 51.267163 75.168134 50.756438 75.283289 50.243077 75.385258 C 49.728836 75.487227 49.213717 75.57689 48.695081 75.653366 C 48.177324 75.730722 47.657809 75.794892 47.136536 75.845877 C 46.615263 75.896861 46.093112 75.935539 45.570081 75.961032 C 45.04705 75.987403 44.524019 75.99971 44.000109 75.99971 C 43.476199 75.99971 42.953168 75.987403 42.430137 75.961032 C 41.907106 75.935539 41.384954 75.896861 40.863681 75.845877 C 40.342408 75.794892 39.822893 75.730722 39.304257 75.653366 C 38.7865 75.57689 38.270502 75.487227 37.75714 75.385258 C 37.243779 75.283289 36.733054 75.168134 36.224967 75.040673 C 35.71688 74.914091 35.212309 74.774323 34.711254 74.622248 C 34.20932 74.470174 33.71266 74.305792 33.219517 74.129105 C 32.726373 73.953296 32.237625 73.764301 31.754151 73.56388 C 31.270677 73.363458 30.791598 73.151608 30.318673 72.927452 C 29.844868 72.703296 29.377217 72.468591 28.915719 72.22158 C 28.453342 71.974569 27.997997 71.71613 27.548806 71.447142 C 27.099615 71.178155 26.657456 70.89774 26.22145 70.606777 C 25.786324 70.315813 25.358229 70.014301 24.938046 69.702241 C 24.516984 69.391059 24.103834 69.06845 23.699474 68.736172 C 23.294235 68.403893 22.897786 68.061945 22.510128 67.710328 C 22.12247 67.35871 21.742723 66.997423 21.372645 66.627346 C 21.002568 66.257268 20.641281 65.877522 20.289663 65.489863 C 19.938046 65.102205 19.596098 64.705756 19.263819 64.300517 C 18.931541 63.896157 18.608932 63.483007 18.29775 63.061945 C 17.98569 62.641762 17.684178 62.213668 17.393215 61.778541 C 17.102251 61.342535 16.821836 60.900376 16.552849 60.451185 C 16.283861 60.001994 16.025423 59.546649 15.778411 59.084272 C 15.5314 58.622774 15.295816 58.155123 15.072539 57.681318 C 14.848383 57.208393 14.636534 56.729314 14.436112 56.24584 C 14.23569 55.762366 14.046695 55.273618 13.870887 54.780474 C 13.694199 54.287331 13.529818 53.790671 13.377743 53.288737 C 13.225668 52.787682 13.085901 52.283111 12.959318 51.775024 C 12.831857 51.266937 12.716702 50.756212 12.614733 50.242851 C 12.512764 49.729489 12.423102 49.213491 12.346625 48.695734 C 12.269269 48.177098 12.205099 47.657583 12.154114 47.13631 C 12.10313 46.615038 12.064452 46.092886 12.03896 45.569855 C 12.012588 45.046824 12.000282 44.523793 12.000282 43.999883 C 12.000282 43.475973 12.012588 42.952942 12.03896 42.429911 C 12.064452 41.90688 12.10313 41.384728 12.154114 40.863455 C 12.205099 40.342182 12.269269 39.822667 12.346625 39.30491 C 12.423102 38.786275 12.512764 38.271155 12.614733 37.756914 C 12.716702 37.243553 12.831857 36.732829 12.959318 36.224741 C 13.085901 35.716654 13.225668 35.212083 13.377743 34.711028 C 13.529818 34.209973 13.694199 33.712434 13.870887 33.219291 C 14.046695 32.726147 14.23569 32.238278 14.436112 31.753925 C 14.636534 31.270451 14.848383 30.791372 15.072539 30.318447 C 15.295816 29.844642 15.5314 29.376991 15.778411 28.915493 C 16.025423 28.453116 16.283861 27.997772 16.552849 27.54858 C 16.821836 27.099389 17.102251 26.65723 17.393215 26.222103 C 17.684178 25.786098 17.98569 25.358003 18.29775 24.93782 C 18.608932 24.516759 18.931541 24.104487 19.263819 23.699248 C 19.596098 23.294888 19.938046 22.898439 20.289663 22.509902 C 20.641281 22.122244 21.002568 21.742497 21.372645 21.372419 C 21.742723 21.002342 22.12247 20.641055 22.510128 20.289438 C 22.897786 19.93782 23.294235 19.595872 23.699474 19.263594 C 24.103834 18.931315 24.516984 18.609585 24.938046 18.297525 C 25.358229 17.985464 25.786324 17.683952 26.22145 17.392989 C 26.657456 17.102025 27.099615 16.82161 27.548806 16.552623 C 27.997997 16.283635 28.453342 16.025197 28.915719 15.778185 C 29.377217 15.532053 29.844868 15.296469 30.318673 15.072313 C 30.791598 14.848157 31.270677 14.636308 31.754151 14.435886 C 32.237625 14.235464 32.726373 14.047348 33.219517 13.870661 C 33.71266 13.693973 34.20932 13.529592 34.711254 13.377517 C 35.212309 13.226322 35.71688 13.086554 36.224967 12.959092 C 36.733054 12.831631 37.243779 12.717355 37.75714 12.614507 C 38.270502 12.512538 38.7865 12.422876 39.304257 12.346399 C 39.822893 12.269922 40.342408 12.205752 40.863681 12.153888 C 41.384954 12.102904 41.907106 12.064226 42.430137 12.038734 C 42.953168 12.013241 43.476199 12.000056 44.000109 12.000056 C 44.524019 12.000056 45.04705 12.013241 45.570081 12.038734 C 46.093112 12.064226 46.615263 12.102904 47.136536 12.153888 C 47.657809 12.205752 48.177324 12.269922 48.695081 12.346399 C 49.213717 12.422876 49.728836 12.512538 50.243077 12.614507 C 50.756438 12.717355 51.267163 12.831631 51.77525 12.959092 C 52.283337 13.086554 52.787908 13.226322 53.288963 13.377517 C 53.790018 13.529592 54.287557 13.693973 54.7807 13.870661 C 55.273844 14.047348 55.761713 14.235464 56.246066 14.435886 C 56.72954 14.636308 57.208619 14.848157 57.681544 15.072313 C 58.155349 15.296469 58.623 15.532053 59.084498 15.778185 C 59.546875 16.025197 60.00222 16.283635 60.451411 16.552623 C 60.900602 16.82161 61.342761 17.102025 61.777888 17.392989 C 62.213894 17.683952 62.641988 17.985464 63.062171 18.297525 C 63.483233 18.609585 63.895504 18.931315 64.300743 19.263594 C 64.705103 19.595872 65.101552 19.93782 65.490089 20.289438 C 65.877748 20.641055 66.257494 21.002342 66.627572 21.372419 C 66.997649 21.742497 67.358936 22.122244 67.710554 22.509902 C 68.062171 22.898439 68.404119 23.294888 68.736398 23.699248 C 69.068676 24.104487 69.390406 24.516759 69.702467 24.93782 C 70.014527 25.358003 70.316039 25.786098 70.607003 26.222103 C 70.897966 26.65723 71.178381 27.099389 71.447368 27.54858 C 71.716356 27.997772 71.974794 28.453116 72.221806 28.915493 C 72.467938 29.376991 72.703522 29.844642 72.927678 30.318447 C 73.151834 30.791372 73.363683 31.270451 73.564105 31.753925 C 73.764527 32.238278 73.952643 32.726147 74.129331 33.219291 C 74.306018 33.712434 74.470399 34.209973 74.622474 34.711028 C 74.77367 35.212083 74.913437 35.716654 75.040899 36.224741 C 75.16836 36.732829 75.282636 37.243553 75.385484 37.756914 C 75.487453 38.271155 75.577115 38.786275 75.653592 39.30491 C 75.730069 39.822667 75.794239 40.342182 75.846103 40.863455 C 75.897087 41.384728 75.935765 41.90688 75.961258 42.429911 C 75.98675 42.952942 75.999935 43.475973 75.999935 43.999883 Z M 75.999935 43.999883 " stroke="#2FA88C" stroke-width="12" stroke-opacity="1" stroke-miterlimit="4"/></g><g clip-path="url(#7a8c47d3c4)"><path stroke-linecap="square" transform="matrix(4.44375, 0, 0, 4.44375, 172.935472, 529.940382)" fill="none" stroke-linejoin="miter" d="M 75.999935 88.000414 L 107.999762 60.000236 " stroke="#2FA88C" stroke-width="9" stroke-opacity="1" stroke-miterlimit="4"/></g><g transform="matrix(1, 0, 0, 1, 653, 399)"><g clip-path="url(#ede3956413)"><g fill="#1C1F26" fill-opacity="1"><g transform="translate(0.404437, 541.009858)"><g><path d="M 40.109375 0 L 40.109375 -384.546875 L 201.609375 -384.546875 C 225.421875 -384.546875 246.390625 -380.425781 264.515625 -372.1875 C 282.640625 -363.945312 296.738281 -352.132812 306.8125 -336.75 C 316.882812 -321.375 321.921875 -303.066406 321.921875 -281.828125 L 321.921875 -275.78125 C 321.921875 -251.601562 316.148438 -232.28125 304.609375 -217.8125 C 293.078125 -203.351562 279.070312 -193.191406 262.59375 -187.328125 L 262.59375 -178.546875 C 276.507812 -177.804688 287.675781 -173.132812 296.09375 -164.53125 C 304.519531 -155.925781 308.734375 -143.566406 308.734375 -127.453125 L 308.734375 0 L 248.859375 0 L 248.859375 -119.21875 C 248.859375 -129.101562 246.296875 -136.972656 241.171875 -142.828125 C 236.046875 -148.691406 227.804688 -151.625 216.453125 -151.625 L 99.4375 -151.625 L 99.4375 0 Z M 99.4375 -205.453125 L 195.015625 -205.453125 C 216.265625 -205.453125 232.75 -210.851562 244.46875 -221.65625 C 256.1875 -232.46875 262.046875 -247.210938 262.046875 -265.890625 L 262.046875 -270.28125 C 262.046875 -288.957031 256.273438 -303.695312 244.734375 -314.5 C 233.203125 -325.3125 216.628906 -330.71875 195.015625 -330.71875 L 99.4375 -330.71875 Z M 99.4375 -205.453125 "/></g></g></g></g></g><g transform="matrix(1, 0, 0, 1, 963, 642)"><g clip-path="url(#79ba8ed525)"><g fill="#2FA88C" fill-opacity="1"><g transform="translate(0.263271, 299.292404)"><g><path d="M 97.859375 4.25 C 73.140625 4.25 53.4375 -2.785156 38.75 -16.859375 C 24.0625 -30.941406 16.71875 -52.171875 16.71875 -80.546875 L 16.71875 -132.203125 C 16.71875 -159.960938 24.0625 -181.035156 38.75 -195.421875 C 53.4375 -209.804688 73.140625 -217 97.859375 -217 C 122.785156 -217 142.59375 -209.804688 157.28125 -195.421875 C 171.96875 -181.035156 179.3125 -159.960938 179.3125 -132.203125 L 179.3125 -80.546875 C 179.3125 -52.171875 171.96875 -30.941406 157.28125 -16.859375 C 142.59375 -2.785156 122.785156 4.25 97.859375 4.25 Z M 97.859375 -24.3125 C 114.679688 -24.3125 127.144531 -29.125 135.25 -38.75 C 143.351562 -48.375 147.40625 -61.898438 147.40625 -79.328125 L 147.40625 -134.03125 C 147.40625 -151.457031 143.046875 -164.878906 134.328125 -174.296875 C 125.617188 -183.722656 113.460938 -188.4375 97.859375 -188.4375 C 82.054688 -188.4375 69.898438 -183.625 61.390625 -174 C 52.878906 -164.375 48.625 -151.050781 48.625 -134.03125 L 48.625 -79.328125 C 48.625 -61.492188 52.726562 -47.863281 60.9375 -38.4375 C 69.144531 -29.019531 81.453125 -24.3125 97.859375 -24.3125 Z M 97.859375 -24.3125 "/></g></g></g><g fill="#2FA88C" fill-opacity="1"><g transform="translate(177.451225, 299.292404)"><g><path d="M 97.859375 4.25 C 73.140625 4.25 53.4375 -2.785156 38.75 -16.859375 C 24.0625 -30.941406 16.71875 -52.171875 16.71875 -80.546875 L 16.71875 -132.203125 C 16.71875 -159.960938 24.0625 -181.035156 38.75 -195.421875 C 53.4375 -209.804688 73.140625 -217 97.859375 -217 C 122.785156 -217 142.59375 -209.804688 157.28125 -195.421875 C 171.96875 -181.035156 179.3125 -159.960938 179.3125 -132.203125 L 179.3125 -80.546875 C 179.3125 -52.171875 171.96875 -30.941406 157.28125 -16.859375 C 142.59375 -2.785156 122.785156 4.25 97.859375 4.25 Z M 97.859375 -24.3125 C 114.679688 -24.3125 127.144531 -29.125 135.25 -38.75 C 143.351562 -48.375 147.40625 -61.898438 147.40625 -79.328125 L 147.40625 -134.03125 C 147.40625 -151.457031 143.046875 -164.878906 134.328125 -174.296875 C 125.617188 -183.722656 113.460938 -188.4375 97.859375 -188.4375 C 82.054688 -188.4375 69.898438 -183.625 61.390625 -174 C 52.878906 -164.375 48.625 -151.050781 48.625 -134.03125 L 48.625 -79.328125 C 48.625 -61.492188 52.726562 -47.863281 60.9375 -38.4375 C 69.144531 -29.019531 81.453125 -24.3125 97.859375 -24.3125 Z M 97.859375 -24.3125 "/></g></g></g></g></g></svg>